<mxfile host="app.diagrams.net" agent="Mozilla/5.0 (Macintosh; Intel Mac OS X 10_15_7) AppleWebKit/537.36 (KHTML, like Gecko) Chrome/137.0.0.0 Safari/537.36" version="27.1.6">
  <diagram name="第 1 页" id="2oorJlVGJsrDuMb9ZmEG">
    <mxGraphModel dx="1426" dy="681" grid="1" gridSize="10" guides="1" tooltips="1" connect="1" arrows="1" fold="1" page="1" pageScale="1" pageWidth="827" pageHeight="1169" math="0" shadow="0">
      <root>
        <mxCell id="0" />
        <mxCell id="1" parent="0" />
        <mxCell id="DSKDy8P703lIZCIsekiN-1" value="" style="endArrow=classic;html=1;rounded=0;entryX=0.6;entryY=1;entryDx=0;entryDy=0;entryPerimeter=0;" edge="1" parent="1">
          <mxGeometry width="50" height="50" relative="1" as="geometry">
            <mxPoint x="339" y="597.19" as="sourcePoint" />
            <mxPoint x="339" y="457.19000000000005" as="targetPoint" />
          </mxGeometry>
        </mxCell>
        <mxCell id="DSKDy8P703lIZCIsekiN-2" value="" style="endArrow=classic;html=1;rounded=0;" edge="1" parent="1">
          <mxGeometry width="50" height="50" relative="1" as="geometry">
            <mxPoint x="339" y="597.19" as="sourcePoint" />
            <mxPoint x="509" y="597.19" as="targetPoint" />
          </mxGeometry>
        </mxCell>
        <mxCell id="DSKDy8P703lIZCIsekiN-3" value="" style="shape=waypoint;sketch=0;fillStyle=solid;size=6;pointerEvents=1;points=[];fillColor=none;resizable=0;rotatable=0;perimeter=centerPerimeter;snapToPoint=1;" vertex="1" parent="1">
          <mxGeometry x="339" y="577.19" width="20" height="20" as="geometry" />
        </mxCell>
        <mxCell id="DSKDy8P703lIZCIsekiN-4" value="" style="shape=waypoint;sketch=0;fillStyle=solid;size=6;pointerEvents=1;points=[];fillColor=#000066;resizable=0;rotatable=0;perimeter=centerPerimeter;snapToPoint=1;" vertex="1" parent="1">
          <mxGeometry x="343" y="564.3800000000001" width="20" height="20" as="geometry" />
        </mxCell>
        <mxCell id="DSKDy8P703lIZCIsekiN-5" value="" style="shape=waypoint;sketch=0;fillStyle=solid;size=6;pointerEvents=1;points=[];fillColor=#000066;resizable=0;rotatable=0;perimeter=centerPerimeter;snapToPoint=1;" vertex="1" parent="1">
          <mxGeometry x="373" y="544.3800000000001" width="20" height="20" as="geometry" />
        </mxCell>
        <mxCell id="DSKDy8P703lIZCIsekiN-6" value="" style="shape=waypoint;sketch=0;fillStyle=solid;size=6;pointerEvents=1;points=[];fillColor=#000066;resizable=0;rotatable=0;perimeter=centerPerimeter;snapToPoint=1;" vertex="1" parent="1">
          <mxGeometry x="363" y="554.3800000000001" width="20" height="20" as="geometry" />
        </mxCell>
        <mxCell id="DSKDy8P703lIZCIsekiN-7" value="" style="shape=waypoint;sketch=0;fillStyle=solid;size=6;pointerEvents=1;points=[];fillColor=#000066;resizable=0;rotatable=0;perimeter=centerPerimeter;snapToPoint=1;" vertex="1" parent="1">
          <mxGeometry x="413" y="524.3800000000001" width="20" height="20" as="geometry" />
        </mxCell>
        <mxCell id="DSKDy8P703lIZCIsekiN-8" value="" style="shape=waypoint;sketch=0;fillStyle=solid;size=6;pointerEvents=1;points=[];fillColor=#000066;resizable=0;rotatable=0;perimeter=centerPerimeter;snapToPoint=1;" vertex="1" parent="1">
          <mxGeometry x="393" y="537.19" width="20" height="20" as="geometry" />
        </mxCell>
        <mxCell id="DSKDy8P703lIZCIsekiN-9" value="" style="endArrow=none;html=1;rounded=0;exitX=0.425;exitY=1.025;exitDx=0;exitDy=0;exitPerimeter=0;" edge="1" parent="1" source="DSKDy8P703lIZCIsekiN-3" target="DSKDy8P703lIZCIsekiN-4">
          <mxGeometry width="50" height="50" relative="1" as="geometry">
            <mxPoint x="279" y="707.19" as="sourcePoint" />
            <mxPoint x="329" y="657.19" as="targetPoint" />
          </mxGeometry>
        </mxCell>
        <mxCell id="DSKDy8P703lIZCIsekiN-10" value="" style="endArrow=none;html=1;rounded=0;entryX=0.35;entryY=1.14;entryDx=0;entryDy=0;entryPerimeter=0;" edge="1" parent="1" source="DSKDy8P703lIZCIsekiN-4" target="DSKDy8P703lIZCIsekiN-6">
          <mxGeometry width="50" height="50" relative="1" as="geometry">
            <mxPoint x="279" y="707.19" as="sourcePoint" />
            <mxPoint x="329" y="657.19" as="targetPoint" />
          </mxGeometry>
        </mxCell>
        <mxCell id="DSKDy8P703lIZCIsekiN-11" value="" style="endArrow=none;html=1;rounded=0;entryX=1.125;entryY=0.39;entryDx=0;entryDy=0;entryPerimeter=0;exitX=0.45;exitY=0.165;exitDx=0;exitDy=0;exitPerimeter=0;" edge="1" parent="1" source="DSKDy8P703lIZCIsekiN-5" target="DSKDy8P703lIZCIsekiN-6">
          <mxGeometry width="50" height="50" relative="1" as="geometry">
            <mxPoint x="279" y="707.19" as="sourcePoint" />
            <mxPoint x="329" y="657.19" as="targetPoint" />
          </mxGeometry>
        </mxCell>
        <mxCell id="DSKDy8P703lIZCIsekiN-12" value="" style="endArrow=none;html=1;rounded=0;entryX=0.7;entryY=0.25;entryDx=0;entryDy=0;entryPerimeter=0;exitX=0.85;exitY=0.315;exitDx=0;exitDy=0;exitPerimeter=0;" edge="1" parent="1" source="DSKDy8P703lIZCIsekiN-5" target="DSKDy8P703lIZCIsekiN-8">
          <mxGeometry width="50" height="50" relative="1" as="geometry">
            <mxPoint x="279" y="707.19" as="sourcePoint" />
            <mxPoint x="329" y="657.19" as="targetPoint" />
          </mxGeometry>
        </mxCell>
        <mxCell id="DSKDy8P703lIZCIsekiN-13" value="" style="endArrow=none;html=1;rounded=0;entryX=0.675;entryY=0.725;entryDx=0;entryDy=0;entryPerimeter=0;fillColor=#000066;" edge="1" parent="1" source="DSKDy8P703lIZCIsekiN-7" target="DSKDy8P703lIZCIsekiN-8">
          <mxGeometry width="50" height="50" relative="1" as="geometry">
            <mxPoint x="279" y="707.19" as="sourcePoint" />
            <mxPoint x="329" y="657.19" as="targetPoint" />
          </mxGeometry>
        </mxCell>
        <mxCell id="DSKDy8P703lIZCIsekiN-14" value="" style="endArrow=none;html=1;rounded=0;entryX=0.8;entryY=0.35;entryDx=0;entryDy=0;entryPerimeter=0;exitX=0.825;exitY=0.75;exitDx=0;exitDy=0;exitPerimeter=0;" edge="1" parent="1" source="DSKDy8P703lIZCIsekiN-3" target="DSKDy8P703lIZCIsekiN-15">
          <mxGeometry width="50" height="50" relative="1" as="geometry">
            <mxPoint x="279" y="707.19" as="sourcePoint" />
            <mxPoint x="439" y="517.19" as="targetPoint" />
          </mxGeometry>
        </mxCell>
        <mxCell id="DSKDy8P703lIZCIsekiN-15" value="" style="shape=waypoint;sketch=0;fillStyle=solid;size=6;pointerEvents=1;points=[];fillColor=#000066;resizable=0;rotatable=0;perimeter=centerPerimeter;snapToPoint=1;" vertex="1" parent="1">
          <mxGeometry x="329" y="587.19" width="20" height="20" as="geometry" />
        </mxCell>
        <mxCell id="DSKDy8P703lIZCIsekiN-16" value="" style="endArrow=none;html=1;rounded=0;strokeColor=#FF0000;fillColor=#000066;entryX=0.45;entryY=0.29;entryDx=0;entryDy=0;entryPerimeter=0;" edge="1" parent="1" source="DSKDy8P703lIZCIsekiN-15" target="DSKDy8P703lIZCIsekiN-4">
          <mxGeometry width="50" height="50" relative="1" as="geometry">
            <mxPoint x="279" y="707.19" as="sourcePoint" />
            <mxPoint x="439" y="507.19000000000005" as="targetPoint" />
          </mxGeometry>
        </mxCell>
        <mxCell id="DSKDy8P703lIZCIsekiN-17" value="&lt;font style=&quot;font-size: 18px;&quot;&gt;key&lt;/font&gt;" style="text;html=1;align=center;verticalAlign=middle;resizable=0;points=[];autosize=1;strokeColor=none;fillColor=none;" vertex="1" parent="1">
          <mxGeometry x="519" y="577.19" width="50" height="40" as="geometry" />
        </mxCell>
        <mxCell id="DSKDy8P703lIZCIsekiN-18" value="&lt;font style=&quot;font-size: 18px;&quot;&gt;pos&lt;/font&gt;" style="text;html=1;align=center;verticalAlign=middle;resizable=0;points=[];autosize=1;strokeColor=none;fillColor=none;" vertex="1" parent="1">
          <mxGeometry x="310" y="420" width="50" height="40" as="geometry" />
        </mxCell>
        <mxCell id="DSKDy8P703lIZCIsekiN-19" value="" style="endArrow=classic;html=1;rounded=0;" edge="1" parent="1">
          <mxGeometry width="50" height="50" relative="1" as="geometry">
            <mxPoint x="634" y="600" as="sourcePoint" />
            <mxPoint x="634" y="460" as="targetPoint" />
          </mxGeometry>
        </mxCell>
        <mxCell id="DSKDy8P703lIZCIsekiN-20" value="" style="endArrow=classic;html=1;rounded=0;" edge="1" parent="1">
          <mxGeometry width="50" height="50" relative="1" as="geometry">
            <mxPoint x="634" y="600" as="sourcePoint" />
            <mxPoint x="784" y="600" as="targetPoint" />
          </mxGeometry>
        </mxCell>
        <mxCell id="DSKDy8P703lIZCIsekiN-21" value="" style="shape=waypoint;sketch=0;fillStyle=solid;size=6;pointerEvents=1;points=[];fillColor=none;resizable=0;rotatable=0;perimeter=centerPerimeter;snapToPoint=1;" vertex="1" parent="1">
          <mxGeometry x="634" y="580" width="20" height="20" as="geometry" />
        </mxCell>
        <mxCell id="DSKDy8P703lIZCIsekiN-22" value="" style="shape=waypoint;sketch=0;fillStyle=solid;size=6;pointerEvents=1;points=[];fillColor=#000066;resizable=0;rotatable=0;perimeter=centerPerimeter;snapToPoint=1;" vertex="1" parent="1">
          <mxGeometry x="645" y="570" width="20" height="20" as="geometry" />
        </mxCell>
        <mxCell id="DSKDy8P703lIZCIsekiN-23" value="" style="shape=waypoint;sketch=0;fillStyle=solid;size=6;pointerEvents=1;points=[];fillColor=#000066;resizable=0;rotatable=0;perimeter=centerPerimeter;snapToPoint=1;" vertex="1" parent="1">
          <mxGeometry x="668" y="547.19" width="20" height="20" as="geometry" />
        </mxCell>
        <mxCell id="DSKDy8P703lIZCIsekiN-24" value="" style="shape=waypoint;sketch=0;fillStyle=solid;size=6;pointerEvents=1;points=[];fillColor=#000066;resizable=0;rotatable=0;perimeter=centerPerimeter;snapToPoint=1;" vertex="1" parent="1">
          <mxGeometry x="658" y="557.19" width="20" height="20" as="geometry" />
        </mxCell>
        <mxCell id="DSKDy8P703lIZCIsekiN-25" value="" style="shape=waypoint;sketch=0;fillStyle=solid;size=6;pointerEvents=1;points=[];fillColor=#000066;resizable=0;rotatable=0;perimeter=centerPerimeter;snapToPoint=1;" vertex="1" parent="1">
          <mxGeometry x="688" y="527.19" width="20" height="20" as="geometry" />
        </mxCell>
        <mxCell id="DSKDy8P703lIZCIsekiN-26" value="" style="shape=waypoint;sketch=0;fillStyle=solid;size=6;pointerEvents=1;points=[];fillColor=#000066;resizable=0;rotatable=0;perimeter=centerPerimeter;snapToPoint=1;" vertex="1" parent="1">
          <mxGeometry x="678" y="537.19" width="20" height="20" as="geometry" />
        </mxCell>
        <mxCell id="DSKDy8P703lIZCIsekiN-27" value="" style="endArrow=none;html=1;rounded=0;exitX=0.425;exitY=1.025;exitDx=0;exitDy=0;exitPerimeter=0;" edge="1" parent="1" source="DSKDy8P703lIZCIsekiN-21" target="DSKDy8P703lIZCIsekiN-22">
          <mxGeometry width="50" height="50" relative="1" as="geometry">
            <mxPoint x="574" y="710" as="sourcePoint" />
            <mxPoint x="624" y="660" as="targetPoint" />
          </mxGeometry>
        </mxCell>
        <mxCell id="DSKDy8P703lIZCIsekiN-28" value="" style="endArrow=none;html=1;rounded=0;entryX=0.35;entryY=1.14;entryDx=0;entryDy=0;entryPerimeter=0;" edge="1" parent="1" source="DSKDy8P703lIZCIsekiN-22" target="DSKDy8P703lIZCIsekiN-24">
          <mxGeometry width="50" height="50" relative="1" as="geometry">
            <mxPoint x="574" y="710" as="sourcePoint" />
            <mxPoint x="624" y="660" as="targetPoint" />
          </mxGeometry>
        </mxCell>
        <mxCell id="DSKDy8P703lIZCIsekiN-29" value="" style="endArrow=none;html=1;rounded=0;entryX=1.125;entryY=0.39;entryDx=0;entryDy=0;entryPerimeter=0;exitX=0.45;exitY=0.165;exitDx=0;exitDy=0;exitPerimeter=0;" edge="1" parent="1" source="DSKDy8P703lIZCIsekiN-23" target="DSKDy8P703lIZCIsekiN-24">
          <mxGeometry width="50" height="50" relative="1" as="geometry">
            <mxPoint x="574" y="710" as="sourcePoint" />
            <mxPoint x="624" y="660" as="targetPoint" />
          </mxGeometry>
        </mxCell>
        <mxCell id="DSKDy8P703lIZCIsekiN-30" value="" style="endArrow=none;html=1;rounded=0;entryX=0.7;entryY=0.25;entryDx=0;entryDy=0;entryPerimeter=0;exitX=0.85;exitY=0.315;exitDx=0;exitDy=0;exitPerimeter=0;" edge="1" parent="1" source="DSKDy8P703lIZCIsekiN-23" target="DSKDy8P703lIZCIsekiN-26">
          <mxGeometry width="50" height="50" relative="1" as="geometry">
            <mxPoint x="574" y="710" as="sourcePoint" />
            <mxPoint x="624" y="660" as="targetPoint" />
          </mxGeometry>
        </mxCell>
        <mxCell id="DSKDy8P703lIZCIsekiN-31" value="" style="endArrow=none;html=1;rounded=0;entryX=0.675;entryY=0.725;entryDx=0;entryDy=0;entryPerimeter=0;fillColor=#000066;" edge="1" parent="1" source="DSKDy8P703lIZCIsekiN-25" target="DSKDy8P703lIZCIsekiN-26">
          <mxGeometry width="50" height="50" relative="1" as="geometry">
            <mxPoint x="574" y="710" as="sourcePoint" />
            <mxPoint x="624" y="660" as="targetPoint" />
          </mxGeometry>
        </mxCell>
        <mxCell id="DSKDy8P703lIZCIsekiN-32" value="" style="endArrow=none;html=1;rounded=0;entryX=0.8;entryY=0.35;entryDx=0;entryDy=0;entryPerimeter=0;exitX=0.825;exitY=0.75;exitDx=0;exitDy=0;exitPerimeter=0;" edge="1" parent="1" source="DSKDy8P703lIZCIsekiN-21" target="DSKDy8P703lIZCIsekiN-33">
          <mxGeometry width="50" height="50" relative="1" as="geometry">
            <mxPoint x="574" y="710" as="sourcePoint" />
            <mxPoint x="734" y="520" as="targetPoint" />
          </mxGeometry>
        </mxCell>
        <mxCell id="DSKDy8P703lIZCIsekiN-33" value="" style="shape=waypoint;sketch=0;fillStyle=solid;size=6;pointerEvents=1;points=[];fillColor=#000066;resizable=0;rotatable=0;perimeter=centerPerimeter;snapToPoint=1;" vertex="1" parent="1">
          <mxGeometry x="624" y="590" width="20" height="20" as="geometry" />
        </mxCell>
        <mxCell id="DSKDy8P703lIZCIsekiN-34" value="" style="endArrow=none;html=1;rounded=0;strokeColor=#FF0000;fillColor=#000066;" edge="1" parent="1" source="DSKDy8P703lIZCIsekiN-33">
          <mxGeometry width="50" height="50" relative="1" as="geometry">
            <mxPoint x="574" y="710" as="sourcePoint" />
            <mxPoint x="754" y="480" as="targetPoint" />
          </mxGeometry>
        </mxCell>
        <mxCell id="DSKDy8P703lIZCIsekiN-35" value="&lt;font style=&quot;font-size: 18px;&quot;&gt;key&lt;/font&gt;" style="text;html=1;align=center;verticalAlign=middle;resizable=0;points=[];autosize=1;strokeColor=none;fillColor=none;" vertex="1" parent="1">
          <mxGeometry x="824" y="580" width="50" height="40" as="geometry" />
        </mxCell>
        <mxCell id="DSKDy8P703lIZCIsekiN-36" value="" style="endArrow=none;html=1;rounded=0;strokeColor=#FF0000;fillColor=#000066;entryX=0.65;entryY=0.19;entryDx=0;entryDy=0;entryPerimeter=0;" edge="1" parent="1" target="DSKDy8P703lIZCIsekiN-5">
          <mxGeometry width="50" height="50" relative="1" as="geometry">
            <mxPoint x="349" y="577.19" as="sourcePoint" />
            <mxPoint x="660" y="587.19" as="targetPoint" />
          </mxGeometry>
        </mxCell>
        <mxCell id="DSKDy8P703lIZCIsekiN-37" value="" style="endArrow=none;html=1;rounded=0;strokeColor=#FF0000;fillColor=#000066;exitX=0.3;exitY=0.14;exitDx=0;exitDy=0;exitPerimeter=0;" edge="1" parent="1" source="DSKDy8P703lIZCIsekiN-5" target="DSKDy8P703lIZCIsekiN-7">
          <mxGeometry width="50" height="50" relative="1" as="geometry">
            <mxPoint x="389" y="557.19" as="sourcePoint" />
            <mxPoint x="680" y="547.19" as="targetPoint" />
          </mxGeometry>
        </mxCell>
        <mxCell id="DSKDy8P703lIZCIsekiN-38" value="" style="endArrow=none;dashed=1;html=1;rounded=0;" edge="1" parent="1">
          <mxGeometry width="50" height="50" relative="1" as="geometry">
            <mxPoint x="353" y="467.19000000000005" as="sourcePoint" />
            <mxPoint x="353" y="596.19" as="targetPoint" />
          </mxGeometry>
        </mxCell>
        <mxCell id="DSKDy8P703lIZCIsekiN-39" value="" style="endArrow=none;dashed=1;html=1;rounded=0;" edge="1" parent="1">
          <mxGeometry width="50" height="50" relative="1" as="geometry">
            <mxPoint x="384" y="467.19000000000005" as="sourcePoint" />
            <mxPoint x="384" y="596.19" as="targetPoint" />
          </mxGeometry>
        </mxCell>
        <mxCell id="DSKDy8P703lIZCIsekiN-40" value="" style="shape=waypoint;sketch=0;fillStyle=solid;size=6;pointerEvents=1;points=[];fillColor=#000066;resizable=0;rotatable=0;perimeter=centerPerimeter;snapToPoint=1;" vertex="1" parent="1">
          <mxGeometry x="429" y="497.19000000000005" width="20" height="20" as="geometry" />
        </mxCell>
        <mxCell id="DSKDy8P703lIZCIsekiN-41" value="" style="shape=waypoint;sketch=0;fillStyle=solid;size=6;pointerEvents=1;points=[];fillColor=#000066;resizable=0;rotatable=0;perimeter=centerPerimeter;snapToPoint=1;" vertex="1" parent="1">
          <mxGeometry x="459" y="487.19000000000005" width="20" height="20" as="geometry" />
        </mxCell>
        <mxCell id="DSKDy8P703lIZCIsekiN-42" value="" style="endArrow=none;html=1;rounded=0;fillColor=#000066;" edge="1" parent="1" source="DSKDy8P703lIZCIsekiN-40" target="DSKDy8P703lIZCIsekiN-7">
          <mxGeometry width="50" height="50" relative="1" as="geometry">
            <mxPoint x="649" y="607.19" as="sourcePoint" />
            <mxPoint x="639" y="617.19" as="targetPoint" />
          </mxGeometry>
        </mxCell>
        <mxCell id="DSKDy8P703lIZCIsekiN-43" value="" style="endArrow=none;html=1;rounded=0;entryX=0.65;entryY=0.8;entryDx=0;entryDy=0;entryPerimeter=0;fillColor=#000066;exitX=1;exitY=0.75;exitDx=0;exitDy=0;exitPerimeter=0;" edge="1" parent="1" source="DSKDy8P703lIZCIsekiN-41" target="DSKDy8P703lIZCIsekiN-40">
          <mxGeometry width="50" height="50" relative="1" as="geometry">
            <mxPoint x="599" y="567.19" as="sourcePoint" />
            <mxPoint x="589" y="577.19" as="targetPoint" />
          </mxGeometry>
        </mxCell>
        <mxCell id="DSKDy8P703lIZCIsekiN-44" value="" style="endArrow=none;html=1;rounded=0;strokeColor=#FF0000;fillColor=#000066;" edge="1" parent="1" source="DSKDy8P703lIZCIsekiN-7">
          <mxGeometry width="50" height="50" relative="1" as="geometry">
            <mxPoint x="489" y="567.19" as="sourcePoint" />
            <mxPoint x="439" y="507.19000000000005" as="targetPoint" />
          </mxGeometry>
        </mxCell>
        <mxCell id="DSKDy8P703lIZCIsekiN-45" value="" style="endArrow=none;html=1;rounded=0;strokeColor=#FF0000;fillColor=#000066;exitX=0.7;exitY=0.8;exitDx=0;exitDy=0;exitPerimeter=0;entryX=0.75;entryY=0.7;entryDx=0;entryDy=0;entryPerimeter=0;" edge="1" parent="1" source="DSKDy8P703lIZCIsekiN-40" target="DSKDy8P703lIZCIsekiN-41">
          <mxGeometry width="50" height="50" relative="1" as="geometry">
            <mxPoint x="509" y="547.19" as="sourcePoint" />
            <mxPoint x="549" y="527.19" as="targetPoint" />
          </mxGeometry>
        </mxCell>
        <mxCell id="DSKDy8P703lIZCIsekiN-46" value="" style="endArrow=none;dashed=1;html=1;rounded=0;" edge="1" parent="1">
          <mxGeometry width="50" height="50" relative="1" as="geometry">
            <mxPoint x="424" y="466.19000000000005" as="sourcePoint" />
            <mxPoint x="424" y="595.19" as="targetPoint" />
          </mxGeometry>
        </mxCell>
        <mxCell id="DSKDy8P703lIZCIsekiN-47" value="" style="endArrow=none;dashed=1;html=1;rounded=0;" edge="1" parent="1">
          <mxGeometry width="50" height="50" relative="1" as="geometry">
            <mxPoint x="439" y="468.19000000000005" as="sourcePoint" />
            <mxPoint x="439" y="597.19" as="targetPoint" />
          </mxGeometry>
        </mxCell>
        <mxCell id="DSKDy8P703lIZCIsekiN-48" value="" style="shape=waypoint;sketch=0;fillStyle=solid;size=6;pointerEvents=1;points=[];fillColor=#000066;resizable=0;rotatable=0;perimeter=centerPerimeter;snapToPoint=1;" vertex="1" parent="1">
          <mxGeometry x="728" y="487.18999999999994" width="20" height="20" as="geometry" />
        </mxCell>
        <mxCell id="DSKDy8P703lIZCIsekiN-49" value="" style="shape=waypoint;sketch=0;fillStyle=solid;size=6;pointerEvents=1;points=[];fillColor=#000066;resizable=0;rotatable=0;perimeter=centerPerimeter;snapToPoint=1;" vertex="1" parent="1">
          <mxGeometry x="708" y="507.18999999999994" width="20" height="20" as="geometry" />
        </mxCell>
        <mxCell id="DSKDy8P703lIZCIsekiN-50" value="" style="endArrow=none;html=1;rounded=0;entryX=0.6;entryY=0.19;entryDx=0;entryDy=0;entryPerimeter=0;fillColor=#000066;exitX=0.8;exitY=0.54;exitDx=0;exitDy=0;exitPerimeter=0;" edge="1" parent="1" source="DSKDy8P703lIZCIsekiN-49" target="DSKDy8P703lIZCIsekiN-25">
          <mxGeometry width="50" height="50" relative="1" as="geometry">
            <mxPoint x="754" y="530" as="sourcePoint" />
            <mxPoint x="744" y="540" as="targetPoint" />
          </mxGeometry>
        </mxCell>
        <mxCell id="DSKDy8P703lIZCIsekiN-51" value="" style="endArrow=none;html=1;rounded=0;entryX=1;entryY=0.44;entryDx=0;entryDy=0;entryPerimeter=0;fillColor=#000066;exitX=0.85;exitY=0.59;exitDx=0;exitDy=0;exitPerimeter=0;" edge="1" parent="1" source="DSKDy8P703lIZCIsekiN-48" target="DSKDy8P703lIZCIsekiN-49">
          <mxGeometry width="50" height="50" relative="1" as="geometry">
            <mxPoint x="774" y="510" as="sourcePoint" />
            <mxPoint x="764" y="520" as="targetPoint" />
          </mxGeometry>
        </mxCell>
        <mxCell id="DSKDy8P703lIZCIsekiN-52" value="&lt;font style=&quot;font-size: 18px;&quot;&gt;pos&lt;/font&gt;" style="text;html=1;align=center;verticalAlign=middle;resizable=0;points=[];autosize=1;strokeColor=none;fillColor=none;" vertex="1" parent="1">
          <mxGeometry x="595" y="410" width="50" height="40" as="geometry" />
        </mxCell>
        <mxCell id="DSKDy8P703lIZCIsekiN-53" value="" style="endArrow=classic;html=1;rounded=0;entryX=0.6;entryY=1;entryDx=0;entryDy=0;entryPerimeter=0;" edge="1" parent="1">
          <mxGeometry width="50" height="50" relative="1" as="geometry">
            <mxPoint x="325" y="357.19000000000005" as="sourcePoint" />
            <mxPoint x="325" y="217.19000000000005" as="targetPoint" />
          </mxGeometry>
        </mxCell>
        <mxCell id="DSKDy8P703lIZCIsekiN-54" value="" style="endArrow=classic;html=1;rounded=0;" edge="1" parent="1">
          <mxGeometry width="50" height="50" relative="1" as="geometry">
            <mxPoint x="325" y="357.19000000000005" as="sourcePoint" />
            <mxPoint x="495" y="357.19000000000005" as="targetPoint" />
          </mxGeometry>
        </mxCell>
        <mxCell id="DSKDy8P703lIZCIsekiN-55" value="" style="shape=waypoint;sketch=0;fillStyle=solid;size=6;pointerEvents=1;points=[];fillColor=none;resizable=0;rotatable=0;perimeter=centerPerimeter;snapToPoint=1;" vertex="1" parent="1">
          <mxGeometry x="325" y="337.19000000000005" width="20" height="20" as="geometry" />
        </mxCell>
        <mxCell id="DSKDy8P703lIZCIsekiN-56" value="" style="shape=waypoint;sketch=0;fillStyle=solid;size=6;pointerEvents=1;points=[];fillColor=#000066;resizable=0;rotatable=0;perimeter=centerPerimeter;snapToPoint=1;" vertex="1" parent="1">
          <mxGeometry x="329" y="324.38" width="20" height="20" as="geometry" />
        </mxCell>
        <mxCell id="DSKDy8P703lIZCIsekiN-57" value="" style="shape=waypoint;sketch=0;fillStyle=solid;size=6;pointerEvents=1;points=[];fillColor=#000066;resizable=0;rotatable=0;perimeter=centerPerimeter;snapToPoint=1;" vertex="1" parent="1">
          <mxGeometry x="359" y="304.38" width="20" height="20" as="geometry" />
        </mxCell>
        <mxCell id="DSKDy8P703lIZCIsekiN-58" value="" style="shape=waypoint;sketch=0;fillStyle=solid;size=6;pointerEvents=1;points=[];fillColor=#000066;resizable=0;rotatable=0;perimeter=centerPerimeter;snapToPoint=1;" vertex="1" parent="1">
          <mxGeometry x="349" y="314.38" width="20" height="20" as="geometry" />
        </mxCell>
        <mxCell id="DSKDy8P703lIZCIsekiN-59" value="" style="shape=waypoint;sketch=0;fillStyle=solid;size=6;pointerEvents=1;points=[];fillColor=#000066;resizable=0;rotatable=0;perimeter=centerPerimeter;snapToPoint=1;" vertex="1" parent="1">
          <mxGeometry x="399" y="284.38" width="20" height="20" as="geometry" />
        </mxCell>
        <mxCell id="DSKDy8P703lIZCIsekiN-60" value="" style="shape=waypoint;sketch=0;fillStyle=solid;size=6;pointerEvents=1;points=[];fillColor=#000066;resizable=0;rotatable=0;perimeter=centerPerimeter;snapToPoint=1;" vertex="1" parent="1">
          <mxGeometry x="379" y="297.19000000000005" width="20" height="20" as="geometry" />
        </mxCell>
        <mxCell id="DSKDy8P703lIZCIsekiN-61" value="" style="endArrow=none;html=1;rounded=0;exitX=0.425;exitY=1.025;exitDx=0;exitDy=0;exitPerimeter=0;" edge="1" parent="1" source="DSKDy8P703lIZCIsekiN-55" target="DSKDy8P703lIZCIsekiN-56">
          <mxGeometry width="50" height="50" relative="1" as="geometry">
            <mxPoint x="265" y="467.18999999999994" as="sourcePoint" />
            <mxPoint x="315" y="417.19000000000005" as="targetPoint" />
          </mxGeometry>
        </mxCell>
        <mxCell id="DSKDy8P703lIZCIsekiN-62" value="" style="endArrow=none;html=1;rounded=0;entryX=0.35;entryY=1.14;entryDx=0;entryDy=0;entryPerimeter=0;" edge="1" parent="1" source="DSKDy8P703lIZCIsekiN-56" target="DSKDy8P703lIZCIsekiN-58">
          <mxGeometry width="50" height="50" relative="1" as="geometry">
            <mxPoint x="265" y="467.18999999999994" as="sourcePoint" />
            <mxPoint x="315" y="417.19000000000005" as="targetPoint" />
          </mxGeometry>
        </mxCell>
        <mxCell id="DSKDy8P703lIZCIsekiN-63" value="" style="endArrow=none;html=1;rounded=0;entryX=1.125;entryY=0.39;entryDx=0;entryDy=0;entryPerimeter=0;exitX=0.45;exitY=0.165;exitDx=0;exitDy=0;exitPerimeter=0;" edge="1" parent="1" source="DSKDy8P703lIZCIsekiN-57" target="DSKDy8P703lIZCIsekiN-58">
          <mxGeometry width="50" height="50" relative="1" as="geometry">
            <mxPoint x="265" y="467.18999999999994" as="sourcePoint" />
            <mxPoint x="315" y="417.19000000000005" as="targetPoint" />
          </mxGeometry>
        </mxCell>
        <mxCell id="DSKDy8P703lIZCIsekiN-64" value="" style="endArrow=none;html=1;rounded=0;entryX=0.7;entryY=0.25;entryDx=0;entryDy=0;entryPerimeter=0;exitX=0.85;exitY=0.315;exitDx=0;exitDy=0;exitPerimeter=0;" edge="1" parent="1" source="DSKDy8P703lIZCIsekiN-57" target="DSKDy8P703lIZCIsekiN-60">
          <mxGeometry width="50" height="50" relative="1" as="geometry">
            <mxPoint x="265" y="467.18999999999994" as="sourcePoint" />
            <mxPoint x="315" y="417.19000000000005" as="targetPoint" />
          </mxGeometry>
        </mxCell>
        <mxCell id="DSKDy8P703lIZCIsekiN-65" value="" style="endArrow=none;html=1;rounded=0;entryX=0.675;entryY=0.725;entryDx=0;entryDy=0;entryPerimeter=0;fillColor=#000066;" edge="1" parent="1" source="DSKDy8P703lIZCIsekiN-59" target="DSKDy8P703lIZCIsekiN-60">
          <mxGeometry width="50" height="50" relative="1" as="geometry">
            <mxPoint x="265" y="467.18999999999994" as="sourcePoint" />
            <mxPoint x="315" y="417.19000000000005" as="targetPoint" />
          </mxGeometry>
        </mxCell>
        <mxCell id="DSKDy8P703lIZCIsekiN-66" value="" style="endArrow=none;html=1;rounded=0;entryX=0.8;entryY=0.35;entryDx=0;entryDy=0;entryPerimeter=0;exitX=0.825;exitY=0.75;exitDx=0;exitDy=0;exitPerimeter=0;" edge="1" parent="1" source="DSKDy8P703lIZCIsekiN-55" target="DSKDy8P703lIZCIsekiN-67">
          <mxGeometry width="50" height="50" relative="1" as="geometry">
            <mxPoint x="265" y="467.18999999999994" as="sourcePoint" />
            <mxPoint x="425" y="277.19000000000005" as="targetPoint" />
          </mxGeometry>
        </mxCell>
        <mxCell id="DSKDy8P703lIZCIsekiN-67" value="" style="shape=waypoint;sketch=0;fillStyle=solid;size=6;pointerEvents=1;points=[];fillColor=#000066;resizable=0;rotatable=0;perimeter=centerPerimeter;snapToPoint=1;" vertex="1" parent="1">
          <mxGeometry x="315" y="347.19000000000005" width="20" height="20" as="geometry" />
        </mxCell>
        <mxCell id="DSKDy8P703lIZCIsekiN-68" value="&lt;font style=&quot;font-size: 18px;&quot;&gt;key&lt;/font&gt;" style="text;html=1;align=center;verticalAlign=middle;resizable=0;points=[];autosize=1;strokeColor=none;fillColor=none;" vertex="1" parent="1">
          <mxGeometry x="501" y="337.19000000000005" width="50" height="40" as="geometry" />
        </mxCell>
        <mxCell id="DSKDy8P703lIZCIsekiN-69" value="" style="shape=waypoint;sketch=0;fillStyle=solid;size=6;pointerEvents=1;points=[];fillColor=#000066;resizable=0;rotatable=0;perimeter=centerPerimeter;snapToPoint=1;" vertex="1" parent="1">
          <mxGeometry x="415" y="257.19000000000005" width="20" height="20" as="geometry" />
        </mxCell>
        <mxCell id="DSKDy8P703lIZCIsekiN-70" value="" style="shape=waypoint;sketch=0;fillStyle=solid;size=6;pointerEvents=1;points=[];fillColor=#000066;resizable=0;rotatable=0;perimeter=centerPerimeter;snapToPoint=1;" vertex="1" parent="1">
          <mxGeometry x="445" y="247.19000000000005" width="20" height="20" as="geometry" />
        </mxCell>
        <mxCell id="DSKDy8P703lIZCIsekiN-71" value="" style="endArrow=none;html=1;rounded=0;fillColor=#000066;" edge="1" parent="1" source="DSKDy8P703lIZCIsekiN-69" target="DSKDy8P703lIZCIsekiN-59">
          <mxGeometry width="50" height="50" relative="1" as="geometry">
            <mxPoint x="635" y="367.19000000000005" as="sourcePoint" />
            <mxPoint x="625" y="377.19000000000005" as="targetPoint" />
          </mxGeometry>
        </mxCell>
        <mxCell id="DSKDy8P703lIZCIsekiN-72" value="" style="endArrow=none;html=1;rounded=0;entryX=0.65;entryY=0.8;entryDx=0;entryDy=0;entryPerimeter=0;fillColor=#000066;exitX=1;exitY=0.75;exitDx=0;exitDy=0;exitPerimeter=0;" edge="1" parent="1" source="DSKDy8P703lIZCIsekiN-70" target="DSKDy8P703lIZCIsekiN-69">
          <mxGeometry width="50" height="50" relative="1" as="geometry">
            <mxPoint x="585" y="327.19000000000005" as="sourcePoint" />
            <mxPoint x="575" y="337.19000000000005" as="targetPoint" />
          </mxGeometry>
        </mxCell>
        <mxCell id="DSKDy8P703lIZCIsekiN-73" value="" style="endArrow=classic;html=1;rounded=0;" edge="1" parent="1">
          <mxGeometry width="50" height="50" relative="1" as="geometry">
            <mxPoint x="634" y="360" as="sourcePoint" />
            <mxPoint x="634" y="220" as="targetPoint" />
            <Array as="points">
              <mxPoint x="634" y="300" />
            </Array>
          </mxGeometry>
        </mxCell>
        <mxCell id="DSKDy8P703lIZCIsekiN-74" value="" style="endArrow=classic;html=1;rounded=0;" edge="1" parent="1">
          <mxGeometry width="50" height="50" relative="1" as="geometry">
            <mxPoint x="634" y="360" as="sourcePoint" />
            <mxPoint x="784" y="360" as="targetPoint" />
          </mxGeometry>
        </mxCell>
        <mxCell id="DSKDy8P703lIZCIsekiN-75" value="" style="shape=waypoint;sketch=0;fillStyle=solid;size=6;pointerEvents=1;points=[];fillColor=none;resizable=0;rotatable=0;perimeter=centerPerimeter;snapToPoint=1;" vertex="1" parent="1">
          <mxGeometry x="634" y="340" width="20" height="20" as="geometry" />
        </mxCell>
        <mxCell id="DSKDy8P703lIZCIsekiN-76" value="" style="shape=waypoint;sketch=0;fillStyle=solid;size=6;pointerEvents=1;points=[];fillColor=#000066;resizable=0;rotatable=0;perimeter=centerPerimeter;snapToPoint=1;" vertex="1" parent="1">
          <mxGeometry x="645" y="330" width="20" height="20" as="geometry" />
        </mxCell>
        <mxCell id="DSKDy8P703lIZCIsekiN-77" value="" style="shape=waypoint;sketch=0;fillStyle=solid;size=6;pointerEvents=1;points=[];fillColor=#000066;resizable=0;rotatable=0;perimeter=centerPerimeter;snapToPoint=1;" vertex="1" parent="1">
          <mxGeometry x="668" y="307.19000000000005" width="20" height="20" as="geometry" />
        </mxCell>
        <mxCell id="DSKDy8P703lIZCIsekiN-78" value="" style="shape=waypoint;sketch=0;fillStyle=solid;size=6;pointerEvents=1;points=[];fillColor=#000066;resizable=0;rotatable=0;perimeter=centerPerimeter;snapToPoint=1;" vertex="1" parent="1">
          <mxGeometry x="658" y="317.19000000000005" width="20" height="20" as="geometry" />
        </mxCell>
        <mxCell id="DSKDy8P703lIZCIsekiN-79" value="" style="shape=waypoint;sketch=0;fillStyle=solid;size=6;pointerEvents=1;points=[];fillColor=#000066;resizable=0;rotatable=0;perimeter=centerPerimeter;snapToPoint=1;" vertex="1" parent="1">
          <mxGeometry x="688" y="287.19000000000005" width="20" height="20" as="geometry" />
        </mxCell>
        <mxCell id="DSKDy8P703lIZCIsekiN-80" value="" style="shape=waypoint;sketch=0;fillStyle=solid;size=6;pointerEvents=1;points=[];fillColor=#000066;resizable=0;rotatable=0;perimeter=centerPerimeter;snapToPoint=1;" vertex="1" parent="1">
          <mxGeometry x="678" y="297.19000000000005" width="20" height="20" as="geometry" />
        </mxCell>
        <mxCell id="DSKDy8P703lIZCIsekiN-81" value="" style="endArrow=none;html=1;rounded=0;exitX=0.425;exitY=1.025;exitDx=0;exitDy=0;exitPerimeter=0;" edge="1" parent="1" source="DSKDy8P703lIZCIsekiN-75" target="DSKDy8P703lIZCIsekiN-76">
          <mxGeometry width="50" height="50" relative="1" as="geometry">
            <mxPoint x="574" y="470" as="sourcePoint" />
            <mxPoint x="624" y="420" as="targetPoint" />
          </mxGeometry>
        </mxCell>
        <mxCell id="DSKDy8P703lIZCIsekiN-82" value="" style="endArrow=none;html=1;rounded=0;entryX=0.35;entryY=1.14;entryDx=0;entryDy=0;entryPerimeter=0;" edge="1" parent="1" source="DSKDy8P703lIZCIsekiN-76" target="DSKDy8P703lIZCIsekiN-78">
          <mxGeometry width="50" height="50" relative="1" as="geometry">
            <mxPoint x="574" y="470" as="sourcePoint" />
            <mxPoint x="624" y="420" as="targetPoint" />
          </mxGeometry>
        </mxCell>
        <mxCell id="DSKDy8P703lIZCIsekiN-83" value="" style="endArrow=none;html=1;rounded=0;entryX=1.125;entryY=0.39;entryDx=0;entryDy=0;entryPerimeter=0;exitX=0.45;exitY=0.165;exitDx=0;exitDy=0;exitPerimeter=0;" edge="1" parent="1" source="DSKDy8P703lIZCIsekiN-77" target="DSKDy8P703lIZCIsekiN-78">
          <mxGeometry width="50" height="50" relative="1" as="geometry">
            <mxPoint x="574" y="470" as="sourcePoint" />
            <mxPoint x="624" y="420" as="targetPoint" />
          </mxGeometry>
        </mxCell>
        <mxCell id="DSKDy8P703lIZCIsekiN-84" value="" style="endArrow=none;html=1;rounded=0;entryX=0.7;entryY=0.25;entryDx=0;entryDy=0;entryPerimeter=0;exitX=0.85;exitY=0.315;exitDx=0;exitDy=0;exitPerimeter=0;" edge="1" parent="1" source="DSKDy8P703lIZCIsekiN-77" target="DSKDy8P703lIZCIsekiN-80">
          <mxGeometry width="50" height="50" relative="1" as="geometry">
            <mxPoint x="574" y="470" as="sourcePoint" />
            <mxPoint x="624" y="420" as="targetPoint" />
          </mxGeometry>
        </mxCell>
        <mxCell id="DSKDy8P703lIZCIsekiN-85" value="" style="endArrow=none;html=1;rounded=0;entryX=0.675;entryY=0.725;entryDx=0;entryDy=0;entryPerimeter=0;fillColor=#000066;" edge="1" parent="1" source="DSKDy8P703lIZCIsekiN-79" target="DSKDy8P703lIZCIsekiN-80">
          <mxGeometry width="50" height="50" relative="1" as="geometry">
            <mxPoint x="574" y="470" as="sourcePoint" />
            <mxPoint x="624" y="420" as="targetPoint" />
          </mxGeometry>
        </mxCell>
        <mxCell id="DSKDy8P703lIZCIsekiN-86" value="" style="endArrow=none;html=1;rounded=0;entryX=0.8;entryY=0.35;entryDx=0;entryDy=0;entryPerimeter=0;exitX=0.825;exitY=0.75;exitDx=0;exitDy=0;exitPerimeter=0;" edge="1" parent="1" source="DSKDy8P703lIZCIsekiN-75" target="DSKDy8P703lIZCIsekiN-87">
          <mxGeometry width="50" height="50" relative="1" as="geometry">
            <mxPoint x="574" y="470" as="sourcePoint" />
            <mxPoint x="734" y="280" as="targetPoint" />
          </mxGeometry>
        </mxCell>
        <mxCell id="DSKDy8P703lIZCIsekiN-87" value="" style="shape=waypoint;sketch=0;fillStyle=solid;size=6;pointerEvents=1;points=[];fillColor=#000066;resizable=0;rotatable=0;perimeter=centerPerimeter;snapToPoint=1;" vertex="1" parent="1">
          <mxGeometry x="624" y="350" width="20" height="20" as="geometry" />
        </mxCell>
        <mxCell id="DSKDy8P703lIZCIsekiN-88" value="&lt;font style=&quot;font-size: 18px;&quot;&gt;key&lt;/font&gt;" style="text;html=1;align=center;verticalAlign=middle;resizable=0;points=[];autosize=1;strokeColor=none;fillColor=none;" vertex="1" parent="1">
          <mxGeometry x="824" y="340" width="50" height="40" as="geometry" />
        </mxCell>
        <mxCell id="DSKDy8P703lIZCIsekiN-89" value="" style="shape=waypoint;sketch=0;fillStyle=solid;size=6;pointerEvents=1;points=[];fillColor=#000066;resizable=0;rotatable=0;perimeter=centerPerimeter;snapToPoint=1;" vertex="1" parent="1">
          <mxGeometry x="728" y="247.19000000000005" width="20" height="20" as="geometry" />
        </mxCell>
        <mxCell id="DSKDy8P703lIZCIsekiN-90" value="" style="shape=waypoint;sketch=0;fillStyle=solid;size=6;pointerEvents=1;points=[];fillColor=#000066;resizable=0;rotatable=0;perimeter=centerPerimeter;snapToPoint=1;" vertex="1" parent="1">
          <mxGeometry x="708" y="267.19000000000005" width="20" height="20" as="geometry" />
        </mxCell>
        <mxCell id="DSKDy8P703lIZCIsekiN-91" value="" style="endArrow=none;html=1;rounded=0;entryX=0.6;entryY=0.19;entryDx=0;entryDy=0;entryPerimeter=0;fillColor=#000066;exitX=0.8;exitY=0.54;exitDx=0;exitDy=0;exitPerimeter=0;" edge="1" parent="1" source="DSKDy8P703lIZCIsekiN-90" target="DSKDy8P703lIZCIsekiN-79">
          <mxGeometry width="50" height="50" relative="1" as="geometry">
            <mxPoint x="754" y="290" as="sourcePoint" />
            <mxPoint x="744" y="300" as="targetPoint" />
          </mxGeometry>
        </mxCell>
        <mxCell id="DSKDy8P703lIZCIsekiN-92" value="" style="endArrow=none;html=1;rounded=0;entryX=1;entryY=0.44;entryDx=0;entryDy=0;entryPerimeter=0;fillColor=#000066;exitX=0.85;exitY=0.59;exitDx=0;exitDy=0;exitPerimeter=0;" edge="1" parent="1" source="DSKDy8P703lIZCIsekiN-89" target="DSKDy8P703lIZCIsekiN-90">
          <mxGeometry width="50" height="50" relative="1" as="geometry">
            <mxPoint x="774" y="270" as="sourcePoint" />
            <mxPoint x="764" y="280" as="targetPoint" />
          </mxGeometry>
        </mxCell>
        <mxCell id="DSKDy8P703lIZCIsekiN-93" value="&lt;font style=&quot;font-size: 18px;&quot;&gt;pos&lt;/font&gt;" style="text;html=1;align=center;verticalAlign=middle;resizable=0;points=[];autosize=1;strokeColor=none;fillColor=none;" vertex="1" parent="1">
          <mxGeometry x="609" y="190" width="50" height="40" as="geometry" />
        </mxCell>
        <mxCell id="DSKDy8P703lIZCIsekiN-94" value="&lt;font style=&quot;font-size: 18px;&quot;&gt;pos&lt;/font&gt;" style="text;html=1;align=center;verticalAlign=middle;resizable=0;points=[];autosize=1;strokeColor=none;fillColor=none;" vertex="1" parent="1">
          <mxGeometry x="300" y="190" width="50" height="40" as="geometry" />
        </mxCell>
        <mxCell id="DSKDy8P703lIZCIsekiN-95" value="" style="shape=flexArrow;endArrow=classic;html=1;rounded=0;" edge="1" parent="1">
          <mxGeometry width="50" height="50" relative="1" as="geometry">
            <mxPoint x="515" y="290" as="sourcePoint" />
            <mxPoint x="615" y="290" as="targetPoint" />
          </mxGeometry>
        </mxCell>
        <mxCell id="DSKDy8P703lIZCIsekiN-96" value="&lt;font style=&quot;font-size: 18px;&quot;&gt;transfer&lt;/font&gt;" style="text;html=1;align=center;verticalAlign=middle;resizable=0;points=[];autosize=1;strokeColor=none;fillColor=none;" vertex="1" parent="1">
          <mxGeometry x="514" y="237.19000000000005" width="80" height="40" as="geometry" />
        </mxCell>
        <mxCell id="DSKDy8P703lIZCIsekiN-97" value="" style="shape=flexArrow;endArrow=classic;html=1;rounded=0;" edge="1" parent="1">
          <mxGeometry width="50" height="50" relative="1" as="geometry">
            <mxPoint x="695" y="380" as="sourcePoint" />
            <mxPoint x="695" y="450" as="targetPoint" />
          </mxGeometry>
        </mxCell>
        <mxCell id="DSKDy8P703lIZCIsekiN-98" value="&lt;span style=&quot;font-size: 18px;&quot;&gt;基于分段线性函数的方法&lt;/span&gt;" style="text;html=1;align=center;verticalAlign=middle;resizable=0;points=[];autosize=1;strokeColor=none;fillColor=none;" vertex="1" parent="1">
          <mxGeometry x="301.5" y="617.19" width="220" height="40" as="geometry" />
        </mxCell>
        <mxCell id="DSKDy8P703lIZCIsekiN-99" value="&lt;span style=&quot;font-size: 18px;&quot;&gt;基于数据分布转换器的方法&lt;/span&gt;" style="text;html=1;align=center;verticalAlign=middle;resizable=0;points=[];autosize=1;strokeColor=none;fillColor=none;" vertex="1" parent="1">
          <mxGeometry x="609" y="617.19" width="240" height="40" as="geometry" />
        </mxCell>
        <mxCell id="DSKDy8P703lIZCIsekiN-100" value="" style="shape=flexArrow;endArrow=classic;html=1;rounded=0;" edge="1" parent="1">
          <mxGeometry width="50" height="50" relative="1" as="geometry">
            <mxPoint x="398" y="377.19000000000005" as="sourcePoint" />
            <mxPoint x="398" y="447.19000000000005" as="targetPoint" />
          </mxGeometry>
        </mxCell>
      </root>
    </mxGraphModel>
  </diagram>
</mxfile>
